<svg
  width="160"
  height="169"
  viewBox="0 0 160 169"
  fill="none"
  xmlns="http://www.w3.org/2000/svg"
>
  <path
    d="M80.4567 168.499C77.8525 168.49 75.2596 168.155 72.7389 167.501L72.2421 167.363L71.7812 167.132C55.1187 158.778 41.0615 147.743 30 134.334C20.8433 123.169 13.7044 110.493 8.90416 96.8746C3.16385 80.5703 0.402203 63.3665 0.751045 46.0847C0.758084 45.7219 0.764041 45.4418 0.764041 45.2488C0.764041 36.848 5.42714 29.4769 12.6438 26.4699C18.1671 24.1685 68.3159 3.57045 71.9393 2.08218C78.7631 -1.33698 86.0428 1.51684 87.2078 2.0159C89.8209 3.08427 136.18 22.0459 146.199 26.8163C156.523 31.7329 159.278 40.5653 159.278 45.009C159.278 65.1273 155.794 83.9294 148.922 100.893C143.372 114.624 135.507 127.3 125.668 138.37C106.685 159.732 87.6965 167.306 87.5133 167.372C85.244 168.153 82.8564 168.534 80.4567 168.499ZM75.9913 157.438C77.6375 157.807 81.4277 158.361 83.898 157.46C87.0363 156.315 102.929 148.074 117.78 131.361C138.3 108.269 148.711 79.2414 148.727 45.0833C148.69 44.3912 148.198 39.4555 141.662 36.3431C131.838 31.6649 83.6514 11.9614 83.1658 11.7629L83.0327 11.7064C82.0229 11.2832 78.8091 10.3919 76.5938 11.5528L76.1502 11.7596C75.6131 11.9802 22.3796 33.8443 16.7022 36.2099C12.7307 37.8646 11.3157 41.9641 11.3157 45.2489C11.3157 45.4889 11.3095 45.8381 11.3007 46.2894C10.8469 69.6617 16.2554 127.174 75.9913 157.438Z"
    fill="#8BC4F4"
  />
  <path
    d="M74.1459 6.87943C74.1459 6.87943 20.4285 28.9419 14.6731 31.34C8.91765 33.7381 6.03993 39.4935 6.03993 45.249C6.03993 51.0044 1.72337 126.105 74.1459 162.416C74.1459 162.416 80.7189 164.235 85.7058 162.416C90.6927 160.597 154.002 129.902 154.002 45.0092C154.002 45.0092 154.002 36.376 143.93 31.5798C133.858 26.7836 85.162 6.87943 85.162 6.87943C85.162 6.87943 79.1819 4.24153 74.1459 6.87943Z"
    fill="#40A9FF"
  />
  <path
    opacity="0.1"
    d="M79.9012 24.1445V141.84C79.9012 141.84 25.7042 115.752 26.1838 47.1663L79.9012 24.1445Z"
    fill="black"
  />
  <path
    d="M76.2645 107.149L59 84.9503L69.04 77.1416L77.2147 87.652L104.83 58.5L114.065 67.2494L76.2645 107.149Z"
    fill="#004F87"
  />
</svg>
