<svg width="150" height="50" viewBox="0 0 150 50" fill="none" xmlns="http://www.w3.org/2000/svg">
<g clip-path="url(#clip0_22587_2419)">
<path d="M137.668 0.0001625H11.9184C11.46 0.0001625 11.0071 0.0001625 10.5499 0.0026625C10.1672 0.0051625 9.78761 0.012425 9.40125 0.0185375C8.56189 0.0284148 7.72451 0.102258 6.89637 0.239425C6.06941 0.379578 5.26834 0.643807 4.52028 1.02318C3.77312 1.40575 3.09043 1.90287 2.49696 2.4965C1.90038 3.08846 1.40308 3.77268 1.02419 4.52286C0.64425 5.27155 0.380801 6.07384 0.242938 6.90201C0.103764 7.72914 0.028873 8.56581 0.0189375 9.40451C0.0073375 9.78776 0.0061125 10.1723 0 10.5556V39.4484C0.0061125 39.8365 0.0073375 40.2125 0.0189375 40.6008C0.028876 41.4394 0.103767 42.2761 0.242938 43.1032C0.38042 43.9318 0.643885 44.7346 1.02419 45.4835C1.40291 46.2313 1.90028 46.9127 2.49696 47.5014C3.08818 48.0977 3.77132 48.5951 4.52028 48.9748C5.26833 49.3552 6.06931 49.621 6.89637 49.7633C7.72465 49.8994 8.56195 49.9732 9.40125 49.9843C9.78761 49.9928 10.1672 49.9977 10.5499 49.9977C11.0071 50.0002 11.46 50.0002 11.9184 50.0002H137.668C138.118 50.0002 138.574 50.0002 139.023 49.9977C139.404 49.9977 139.795 49.9928 140.176 49.9843C141.014 49.9738 141.849 49.8999 142.676 49.7633C143.506 49.62 144.309 49.3542 145.061 48.9748C145.809 48.5949 146.492 48.0975 147.083 47.5014C147.678 46.9104 148.176 46.2295 148.56 45.4835C148.937 44.734 149.198 43.9313 149.333 43.1032C149.473 42.276 149.55 41.4395 149.565 40.6008C149.57 40.2125 149.57 39.8365 149.57 39.4484C149.58 38.9943 149.58 38.5427 149.58 38.0812V11.9203C149.58 11.4626 149.58 11.0085 149.57 10.5556C149.57 10.1723 149.57 9.78776 149.565 9.40446C149.55 8.56569 149.473 7.72921 149.333 6.90196C149.198 6.07426 148.937 5.27204 148.56 4.52281C147.788 3.01916 146.564 1.79519 145.061 1.02306C144.309 0.644622 143.505 0.380463 142.676 0.239312C141.849 0.101541 141.014 0.0276722 140.176 0.0183625C139.795 0.0122625 139.404 0.0049375 139.023 0.0025C138.574 0 138.118 0.0001625 137.668 0.0001625Z" fill="black"/>
<path d="M10.5563 48.906C10.1755 48.906 9.80383 48.9011 9.42597 48.8926C8.64319 48.8824 7.86225 48.8143 7.08954 48.6888C6.36903 48.5647 5.67105 48.3338 5.01862 48.0039C4.37217 47.6767 3.78256 47.2476 3.27237 46.7331C2.75479 46.2247 2.32389 45.6351 1.99673 44.9875C1.66596 44.3357 1.43706 43.6371 1.31798 42.916C1.18938 42.1412 1.11981 41.3577 1.10985 40.5723C1.10193 40.3086 1.09155 39.4309 1.09155 39.4309V10.5552C1.09155 10.5552 1.1026 9.69092 1.10992 9.43701C1.11945 8.65286 1.18862 7.87057 1.31683 7.09692C1.43613 6.37382 1.66521 5.67319 1.99615 5.01929C2.32211 4.37219 2.75062 3.78208 3.26508 3.27186C3.77896 2.75678 4.37046 2.32551 5.018 1.99377C5.66893 1.66487 6.3656 1.43567 7.08465 1.31384C7.8599 1.18705 8.64356 1.1185 9.42904 1.10877L10.5569 1.09351H139.018L140.159 1.10938C140.937 1.11863 141.714 1.18657 142.482 1.31262C143.208 1.43597 143.912 1.66678 144.571 1.99743C145.868 2.66599 146.924 3.72371 147.589 5.02234C147.915 5.67173 148.141 6.36664 148.258 7.08349C148.388 7.8635 148.461 8.65193 148.476 9.44251C148.479 9.79651 148.479 10.1768 148.479 10.5552C148.489 11.0239 148.489 11.4701 148.489 11.9199V38.0808C148.489 38.5349 148.489 38.978 148.479 39.4248C148.479 39.8313 148.479 40.2036 148.474 40.5869C148.46 41.3634 148.388 42.1377 148.261 42.9038C148.144 43.6301 147.916 44.3341 147.586 44.9913C147.256 45.6318 146.828 46.2163 146.316 46.7234C145.806 47.2406 145.215 47.6722 144.567 48.0015C143.91 48.334 143.208 48.5657 142.482 48.6888C141.709 48.815 140.928 48.8831 140.146 48.8926C139.779 48.9011 139.396 48.906 139.024 48.906L137.669 48.9085L10.5563 48.906Z" fill="white"/>
<path d="M31.246 24.8619C31.26 23.7769 31.5482 22.7131 32.0838 21.7695C32.6194 20.8258 33.3849 20.033 34.3093 19.4647C33.7221 18.6261 32.9474 17.936 32.0468 17.4491C31.1462 16.9622 30.1445 16.692 29.1213 16.66C26.9385 16.4309 24.8224 17.9662 23.71 17.9662C22.5762 17.9662 20.8636 16.6828 19.0194 16.7207C17.8266 16.7593 16.6641 17.1061 15.6451 17.7275C14.6262 18.349 13.7856 19.2237 13.2052 20.2666C10.6913 24.6191 12.5665 31.0158 14.9746 34.5341C16.1795 36.2569 17.5876 38.1813 19.4301 38.113C21.2331 38.0382 21.9065 36.9633 24.0828 36.9633C26.239 36.9633 26.8708 38.113 28.7507 38.0696C30.6854 38.0382 31.9043 36.3392 33.0669 34.6001C33.9326 33.3726 34.5988 32.0159 35.0407 30.5802C33.9167 30.1048 32.9575 29.3091 32.2827 28.2922C31.6079 27.2753 31.2474 26.0823 31.246 24.8619Z" fill="black"/>
<path d="M27.6952 14.346C28.7501 13.0796 29.2698 11.4519 29.1439 9.80859C27.5323 9.97786 26.0436 10.7481 24.9745 11.9659C24.4518 12.5608 24.0514 13.2529 23.7963 14.0026C23.5412 14.7523 23.4364 15.545 23.4878 16.3352C24.2939 16.3435 25.0914 16.1688 25.8202 15.8242C26.549 15.4797 27.1901 14.9742 27.6952 14.346Z" fill="black"/>
<path d="M52.8774 33.9244H46.9607L45.5398 38.1199H43.0337L48.6379 22.5974H51.2417L56.8459 38.1199H54.2971L52.8774 33.9244ZM47.5735 31.9883H52.2635L49.9515 25.1792H49.8867L47.5735 31.9883Z" fill="black"/>
<path d="M68.949 32.4618C68.949 35.9787 67.0667 38.2382 64.2261 38.2382C63.5065 38.2758 62.7909 38.1101 62.1612 37.7599C61.5314 37.4097 61.013 36.8893 60.6653 36.2582H60.6116V41.8637H58.2886V26.8026H60.5371V28.685H60.5798C60.9435 28.0569 61.4707 27.5391 62.1052 27.1868C62.7398 26.8345 63.4579 26.6608 64.1833 26.6842C67.0557 26.6842 68.949 28.9547 68.949 32.4618ZM66.5613 32.4618C66.5613 30.1706 65.3772 28.6642 63.5706 28.6642C61.7957 28.6642 60.6018 30.2023 60.6018 32.4618C60.6018 34.7421 61.7957 36.2692 63.5706 36.2692C65.3772 36.2692 66.5613 34.7738 66.5613 32.4618Z" fill="black"/>
<path d="M81.4057 32.4618C81.4057 35.9787 79.5227 38.2382 76.6822 38.2382C75.9626 38.2758 75.247 38.1101 74.6172 37.7599C73.9875 37.4097 73.4691 36.8893 73.1214 36.2582H73.0676V41.8637H70.7446V26.8026H72.9932V28.685H73.0359C73.3996 28.0569 73.9267 27.5391 74.5613 27.1868C75.1958 26.8345 75.914 26.6608 76.6394 26.6842C79.5118 26.6842 81.4057 28.9547 81.4057 32.4618ZM79.0174 32.4618C79.0174 30.1706 77.8333 28.6642 76.0266 28.6642C74.2517 28.6642 73.0579 30.2023 73.0579 32.4618C73.0579 34.7421 74.2517 36.2692 76.0266 36.2692C77.8333 36.2692 79.0174 34.7738 79.0174 32.4618Z" fill="black"/>
<path d="M89.6368 33.795C89.8089 35.3343 91.3043 36.345 93.3477 36.345C95.3057 36.345 96.7144 35.3342 96.7144 33.9463C96.7144 32.7415 95.8648 32.02 93.8531 31.5256L91.8414 31.041C88.991 30.3525 87.6678 29.0195 87.6678 26.8564C87.6678 24.1782 90.0018 22.3386 93.3148 22.3386C96.596 22.3386 98.8446 24.1782 98.9202 26.8564H96.5752C96.4349 25.3074 95.1543 24.3723 93.283 24.3723C91.4117 24.3723 90.1312 25.3184 90.1312 26.6953C90.1312 27.7927 90.949 28.4385 92.9498 28.9328L94.66 29.3527C97.8448 30.1059 99.1668 31.3852 99.1668 33.6557C99.1668 36.5598 96.8548 38.3786 93.1755 38.3786C89.7331 38.3786 87.4089 36.6025 87.2588 33.7949L89.6368 33.795Z" fill="black"/>
<path d="M104.183 24.1248V26.803H106.335V28.6426H104.183V34.8816C104.183 35.8508 104.614 36.3025 105.56 36.3025C105.815 36.298 106.07 36.2801 106.324 36.2487V38.0774C105.899 38.1568 105.466 38.1928 105.034 38.1848C102.742 38.1848 101.849 37.3242 101.849 35.1294V28.6426H100.203V26.803H101.849V24.1248H104.183Z" fill="black"/>
<path d="M107.58 32.4622C107.58 28.9014 109.677 26.6638 112.948 26.6638C116.229 26.6638 118.316 28.9013 118.316 32.4622C118.316 36.0327 116.24 38.2605 112.948 38.2605C109.656 38.2605 107.58 36.0327 107.58 32.4622ZM115.949 32.4622C115.949 30.0195 114.83 28.5779 112.948 28.5779C111.065 28.5779 109.946 30.0305 109.946 32.4622C109.946 34.9145 111.065 36.3452 112.948 36.3452C114.83 36.3452 115.949 34.9145 115.949 32.4622Z" fill="black"/>
<path d="M120.231 26.803H122.447V28.7293H122.501C122.65 28.1277 123.003 27.596 123.499 27.2236C123.994 26.8513 124.603 26.6609 125.223 26.6846C125.49 26.6836 125.757 26.7127 126.019 26.7713V28.9441C125.681 28.8408 125.328 28.7934 124.975 28.8037C124.637 28.79 124.301 28.8495 123.989 28.9782C123.676 29.1068 123.396 29.3014 123.166 29.5488C122.936 29.7962 122.762 30.0904 122.656 30.4112C122.551 30.732 122.516 31.0719 122.554 31.4075V38.1201H120.231L120.231 26.803Z" fill="black"/>
<path d="M136.729 34.7961C136.417 36.8506 134.416 38.2605 131.856 38.2605C128.564 38.2605 126.52 36.0547 126.52 32.5159C126.52 28.9661 128.575 26.6638 131.758 26.6638C134.889 26.6638 136.858 28.8147 136.858 32.2461V33.042H128.865V33.1824C128.828 33.5989 128.88 34.0185 129.018 34.4133C129.156 34.8081 129.376 35.169 129.664 35.4722C129.952 35.7754 130.301 36.0139 130.688 36.1717C131.075 36.3296 131.492 36.4033 131.91 36.3879C132.459 36.4394 133.01 36.3122 133.48 36.0254C133.951 35.7386 134.317 35.3075 134.523 34.7961L136.729 34.7961ZM128.876 31.4185H134.534C134.555 31.044 134.498 30.6692 134.367 30.3177C134.237 29.9662 134.034 29.6455 133.774 29.3758C133.513 29.1061 133.2 28.8932 132.853 28.7504C132.506 28.6076 132.133 28.5381 131.758 28.5461C131.38 28.5439 131.005 28.6166 130.655 28.76C130.305 28.9034 129.987 29.1148 129.719 29.3818C129.451 29.6488 129.238 29.9663 129.094 30.3159C128.949 30.6654 128.875 31.0402 128.876 31.4185Z" fill="black"/>
<path d="M47.2825 10.9135C47.7695 10.8785 48.2582 10.9521 48.7133 11.1289C49.1685 11.3057 49.5787 11.5813 49.9144 11.9358C50.2502 12.2904 50.503 12.715 50.6548 13.1791C50.8065 13.6432 50.8534 14.1351 50.792 14.6195C50.792 17.0024 49.5042 18.372 47.2825 18.372H44.5884V10.9135H47.2825ZM45.7468 17.3172H47.1531C47.5011 17.338 47.8493 17.281 48.1725 17.1502C48.4957 17.0194 48.7856 16.8183 49.0213 16.5613C49.2569 16.3043 49.4322 15.9981 49.5345 15.6648C49.6369 15.3315 49.6636 14.9796 49.6128 14.6347C49.6599 14.2912 49.6305 13.9415 49.5266 13.6107C49.4227 13.2798 49.2469 12.9761 49.0118 12.7212C48.7767 12.4662 48.4882 12.2665 48.1668 12.1362C47.8455 12.0059 47.4993 11.9483 47.1531 11.9675H45.7468V17.3172Z" fill="black"/>
<path d="M52.1009 15.555C52.0655 15.1851 52.1079 14.8119 52.2252 14.4593C52.3425 14.1067 52.5322 13.7825 52.7821 13.5076C53.032 13.2326 53.3367 13.0129 53.6765 12.8625C54.0163 12.7122 54.3838 12.6345 54.7554 12.6345C55.1269 12.6345 55.4944 12.7122 55.8342 12.8625C56.1741 13.0129 56.4787 13.2326 56.7286 13.5076C56.9785 13.7825 57.1682 14.1067 57.2855 14.4593C57.4028 14.8119 57.4452 15.1851 57.4098 15.555C57.4458 15.9253 57.404 16.299 57.287 16.6522C57.17 17.0053 56.9805 17.3301 56.7305 17.6056C56.4805 17.8811 56.1756 18.1013 55.8355 18.252C55.4953 18.4026 55.1274 18.4805 54.7554 18.4805C54.3833 18.4805 54.0154 18.4026 53.6753 18.252C53.3351 18.1013 53.0302 17.8811 52.7802 17.6056C52.5303 17.3301 52.3407 17.0053 52.2237 16.6522C52.1067 16.299 52.0649 15.9253 52.1009 15.555ZM56.2672 15.555C56.2672 14.3349 55.7191 13.6214 54.7572 13.6214C53.7916 13.6214 53.2484 14.3349 53.2484 15.555C53.2484 16.7849 53.7916 17.4929 54.7572 17.4929C55.7191 17.4929 56.2672 16.78 56.2672 15.555Z" fill="black"/>
<path d="M64.4665 18.3721H63.3142L62.1509 14.2266H62.063L60.9045 18.3721H59.7632L58.2117 12.7434H59.3384L60.3467 17.0384H60.4297L61.5869 12.7434H62.6526L63.8098 17.0384H63.8977L64.9011 12.7434H66.012L64.4665 18.3721Z" fill="black"/>
<path d="M67.3167 12.7433H68.386V13.6375H68.469C68.6098 13.3164 68.8473 13.0471 69.1484 12.8674C69.4495 12.6876 69.7992 12.6063 70.1487 12.6347C70.4226 12.6141 70.6976 12.6554 70.9533 12.7555C71.2091 12.8556 71.439 13.012 71.6261 13.2131C71.8132 13.4141 71.9527 13.6547 72.0342 13.917C72.1157 14.1793 72.1371 14.4565 72.0969 14.7282V18.3719H70.9861V15.0071C70.9861 14.1026 70.593 13.6528 69.7715 13.6528C69.5855 13.6441 69.3999 13.6758 69.2273 13.7455C69.0548 13.8153 68.8993 13.9216 68.7717 14.0571C68.644 14.1926 68.5472 14.354 68.4878 14.5305C68.4284 14.7069 68.4078 14.8941 68.4275 15.0792V18.372H67.3167L67.3167 12.7433Z" fill="black"/>
<path d="M73.8672 10.5464H74.978V18.3723H73.8672V10.5464Z" fill="black"/>
<path d="M76.5223 15.5551C76.4869 15.1852 76.5293 14.8119 76.6466 14.4593C76.7639 14.1067 76.9537 13.7826 77.2036 13.5076C77.4536 13.2326 77.7582 13.0129 78.0981 12.8625C78.4379 12.7122 78.8054 12.6345 79.177 12.6345C79.5486 12.6345 79.9161 12.7122 80.256 12.8625C80.5958 13.0129 80.9005 13.2326 81.1504 13.5076C81.4004 13.7826 81.5901 14.1067 81.7074 14.4593C81.8248 14.8119 81.8671 15.1852 81.8317 15.5551C81.8678 15.9254 81.8259 16.2991 81.7089 16.6523C81.5919 17.0054 81.4022 17.3302 81.1522 17.6057C80.9022 17.8812 80.5973 18.1014 80.2571 18.252C79.917 18.4027 79.5491 18.4805 79.177 18.4805C78.805 18.4805 78.4371 18.4027 78.0969 18.252C77.7567 18.1014 77.4518 17.8812 77.2018 17.6057C76.9518 17.3302 76.7622 17.0054 76.6452 16.6523C76.5281 16.2991 76.4863 15.9254 76.5223 15.5551ZM80.6885 15.5551C80.6885 14.335 80.1404 13.6215 79.1785 13.6215C78.213 13.6215 77.6698 14.335 77.6698 15.5551C77.6698 16.785 78.213 17.493 79.1785 17.493C80.1405 17.493 80.6885 16.7801 80.6885 15.5551Z" fill="black"/>
<path d="M83.0012 16.78C83.0012 15.7668 83.7556 15.1827 85.0947 15.0997L86.6194 15.0118V14.526C86.6194 13.9315 86.2263 13.5958 85.467 13.5958C84.8469 13.5958 84.4172 13.8235 84.2939 14.2214H83.2185C83.332 13.2546 84.2415 12.6345 85.5183 12.6345C86.9294 12.6345 87.7253 13.337 87.7253 14.526V18.3718H86.656V17.5808H86.5681C86.3897 17.8646 86.1392 18.0959 85.8422 18.2511C85.5452 18.4064 85.2122 18.48 84.8774 18.4646C84.6411 18.4891 84.4023 18.4639 84.1764 18.3906C83.9504 18.3172 83.7424 18.1973 83.5656 18.0386C83.3888 17.8799 83.2473 17.6859 83.1501 17.4691C83.0529 17.2523 83.0022 17.0176 83.0012 16.78ZM86.6194 16.2991V15.8285L85.2449 15.9164C84.4697 15.9682 84.1182 16.2319 84.1182 16.7281C84.1182 17.2347 84.5576 17.5295 85.1619 17.5295C85.339 17.5474 85.5178 17.5296 85.6878 17.477C85.8578 17.4243 86.0155 17.3381 86.1515 17.2233C86.2875 17.1085 86.399 16.9675 86.4794 16.8087C86.5597 16.6499 86.6074 16.4766 86.6194 16.2991Z" fill="black"/>
<path d="M89.1851 15.5556C89.1851 13.777 90.0994 12.6503 91.5215 12.6503C91.8733 12.6341 92.2224 12.7183 92.528 12.8932C92.8337 13.0681 93.0833 13.3263 93.2476 13.6378H93.3306V10.5464H94.4414V18.3723H93.377V17.483H93.2891C93.1121 17.7924 92.8538 18.0474 92.5422 18.2205C92.2307 18.3936 91.8777 18.4782 91.5215 18.4651C90.0896 18.4651 89.1851 17.3384 89.1851 15.5556ZM90.3326 15.5556C90.3326 16.7494 90.8953 17.4678 91.8365 17.4678C92.7727 17.4678 93.3514 16.739 93.3514 15.5604C93.3514 14.3873 92.7666 13.6482 91.8365 13.6482C90.9014 13.6482 90.3326 14.3715 90.3326 15.5556Z" fill="black"/>
<path d="M99.0375 15.555C99.0021 15.1851 99.0444 14.8119 99.1617 14.4593C99.279 14.1067 99.4687 13.7825 99.7186 13.5076C99.9685 13.2326 100.273 13.0129 100.613 12.8625C100.953 12.7122 101.32 12.6345 101.692 12.6345C102.063 12.6345 102.431 12.7122 102.771 12.8625C103.111 13.0129 103.415 13.2326 103.665 13.5076C103.915 13.7825 104.105 14.1067 104.222 14.4593C104.339 14.8119 104.382 15.1851 104.346 15.555C104.382 15.9253 104.341 16.299 104.224 16.6522C104.107 17.0053 103.917 17.3301 103.667 17.6056C103.417 17.8811 103.112 18.1013 102.772 18.252C102.432 18.4026 102.064 18.4805 101.692 18.4805C101.32 18.4805 100.952 18.4026 100.612 18.252C100.272 18.1013 99.9668 17.8811 99.7168 17.6056C99.4668 17.3301 99.2772 17.0053 99.1602 16.6522C99.0432 16.299 99.0014 15.9253 99.0375 15.555ZM103.204 15.555C103.204 14.3349 102.656 13.6214 101.694 13.6214C100.728 13.6214 100.185 14.3349 100.185 15.555C100.185 16.7849 100.728 17.4929 101.694 17.4929C102.656 17.4929 103.204 16.78 103.204 15.555Z" fill="black"/>
<path d="M105.837 12.7433H106.906V13.6375H106.989C107.13 13.3164 107.367 13.0471 107.668 12.8674C107.97 12.6876 108.319 12.6063 108.669 12.6347C108.943 12.6141 109.218 12.6554 109.473 12.7555C109.729 12.8556 109.959 13.012 110.146 13.2131C110.333 13.4141 110.473 13.6547 110.554 13.917C110.636 14.1793 110.657 14.4565 110.617 14.7282V18.3719H109.506V15.0071C109.506 14.1026 109.113 13.6528 108.292 13.6528C108.106 13.6441 107.92 13.6758 107.747 13.7455C107.575 13.8153 107.419 13.9216 107.292 14.0571C107.164 14.1926 107.067 14.354 107.008 14.5305C106.948 14.7069 106.928 14.8941 106.948 15.0792V18.372H105.837V12.7433Z" fill="black"/>
<path d="M116.894 11.342V12.769H118.114V13.7047H116.894V16.599C116.894 17.1886 117.137 17.4468 117.69 17.4468C117.832 17.4463 117.973 17.4378 118.114 17.4211V18.3464C117.914 18.3821 117.712 18.4011 117.509 18.4032C116.274 18.4032 115.782 17.9686 115.782 16.8834V13.7047H114.888V12.769H115.782V11.342H116.894Z" fill="black"/>
<path d="M119.631 10.5464H120.732V13.6482H120.82C120.967 13.324 121.211 13.0533 121.518 12.8729C121.826 12.6924 122.181 12.6111 122.536 12.6399C122.808 12.6251 123.081 12.6706 123.333 12.7731C123.586 12.8757 123.813 13.0328 123.999 13.2332C124.184 13.4336 124.322 13.6724 124.405 13.9326C124.487 14.1928 124.511 14.4679 124.474 14.7383V18.3723H123.362V15.0123C123.362 14.1133 122.944 13.6579 122.159 13.6579C121.968 13.6423 121.776 13.6685 121.596 13.7349C121.416 13.8012 121.253 13.906 121.118 14.0419C120.983 14.1778 120.88 14.3416 120.815 14.5217C120.749 14.7019 120.725 14.8941 120.742 15.0849V18.3723H119.631L119.631 10.5464Z" fill="black"/>
<path d="M130.951 16.8521C130.8 17.3666 130.473 17.8115 130.027 18.1092C129.582 18.4069 129.045 18.5384 128.512 18.4806C128.141 18.4903 127.773 18.4193 127.432 18.2724C127.092 18.1255 126.787 17.9062 126.54 17.6298C126.292 17.3534 126.108 17.0264 126 16.6717C125.891 16.3169 125.861 15.9428 125.912 15.5753C125.863 15.2067 125.893 14.8318 126.001 14.4759C126.109 14.1201 126.293 13.7916 126.539 13.5128C126.785 13.2339 127.088 13.0112 127.428 12.8597C127.767 12.7082 128.136 12.6314 128.507 12.6346C130.074 12.6346 131.018 13.7046 131.018 15.4721V15.8597H127.044V15.922C127.026 16.1285 127.052 16.3364 127.12 16.5324C127.188 16.7283 127.296 16.908 127.437 17.0598C127.578 17.2116 127.749 17.3322 127.94 17.414C128.13 17.4957 128.336 17.5368 128.543 17.5345C128.809 17.5664 129.078 17.5185 129.316 17.397C129.555 17.2755 129.752 17.0858 129.882 16.8521L130.951 16.8521ZM127.044 15.0382H129.887C129.901 14.8493 129.875 14.6595 129.811 14.4811C129.748 14.3027 129.647 14.1396 129.517 14.0023C129.386 13.865 129.229 13.7565 129.054 13.6838C128.879 13.611 128.691 13.5757 128.501 13.5801C128.309 13.5776 128.118 13.6137 127.941 13.6861C127.763 13.7586 127.601 13.8659 127.465 14.0018C127.329 14.1377 127.222 14.2994 127.15 14.4774C127.077 14.6554 127.041 14.8461 127.044 15.0382Z" fill="black"/>
</g>
<defs>
<clipPath id="clip0_22587_2419">
<rect width="149.58" height="50" fill="white"/>
</clipPath>
</defs>
</svg>
